<?xml version="1.0" encoding="utf-8"?>
<!-- Generator: Adobe Illustrator 20.0.0, SVG Export Plug-In . SVG Version: 6.00 Build 0)  -->
<svg version="1.1" id="Layer_1" xmlns="http://www.w3.org/2000/svg" xmlns:xlink="http://www.w3.org/1999/xlink" x="0px" y="0px"
	 viewBox="0 0 140 40" enable-background="new 0 0 140 40" xml:space="preserve">
<g>
	<path id="laser1" fill="#61686B" stroke="#2F2F2F" stroke-width="4" stroke-miterlimit="10" d="M129.8,32.7H13.1
		c-3.4,0-6-0.7-6-1.6V8.8c0-0.9,3-1.6,6-1.6h116.3c3.4,0,6,0.7,6,1.6v22.3C135.8,32,132.8,32.7,129.8,32.7z"/>
	<text transform="matrix(1 0 0 1 36.2759 27.1016)" fill="#F2F2F2" font-family="'MyriadPro-Regular'" font-size="21.3969px">LASER 1</text>
</g>
<g>
	<path id="laser1_1_" fill="#61686B" stroke="#2F2F2F" stroke-width="4" stroke-miterlimit="10" d="M129.8,71.8H13.1
		c-3.4,0-6-0.7-6-1.6V47.8c0-0.9,3-1.6,6-1.6h116.3c3.4,0,6,0.7,6,1.6v22.3C135.8,71,132.8,71.8,129.8,71.8z"/>
	<text transform="matrix(1 0 0 1 36.2759 66.1016)" fill="#F2F2F2" font-family="'MyriadPro-Regular'" font-size="21.3969px">LASER 2</text>
</g>
<g>
	<path id="laser1_2_" fill="#61686B" stroke="#2F2F2F" stroke-width="4" stroke-miterlimit="10" d="M129.8,109.8H13.1
		c-3.4,0-6-0.7-6-1.6V85.8c0-0.9,3-1.6,6-1.6h116.3c3.4,0,6,0.7,6,1.6v22.3C135.8,109,132.8,109.8,129.8,109.8z"/>
	<text transform="matrix(1 0 0 1 36.2759 104.1016)" fill="#F2F2F2" font-family="'MyriadPro-Regular'" font-size="21.3969px">LASER 3</text>
</g>
</svg>
